REM DIRINDEX 1\2\6,1\2\7,1\2\8,1\2\9,1\3\10,1\3\11,1\4\12,1\4\13,1\4\14,1\5\15,1\5\16,1\5\17
REM DIRNAME folder01,folder02,folder03,folder04,folder05,folder06,folder07,folder08,folder09,folder10,folder11,folder12,folder13,folder14,folder15,folder16,folder17
TITLE ""
FILE "1900_2_sec10_0985_1000.mp3" MP3
  TRACK 01 AUDIO
    TITLE "0:"
    INDEX 01 00:00:00
  TRACK 02 AUDIO
    TITLE "13:cjc020_4096"
    INDEX 01 00:00:17
  TRACK 03 AUDIO
    TITLE "0:"
    INDEX 01 00:01:48
  TRACK 04 AUDIO
    TITLE "14:cjc020_4097"
    INDEX 01 00:01:56
  TRACK 05 AUDIO
    TITLE "0:"
    INDEX 01 00:05:40
  TRACK 06 AUDIO
    TITLE "13:cjc020_4098"
    INDEX 01 00:06:20
  TRACK 07 AUDIO
    TITLE "0:"
    INDEX 01 00:07:49
  TRACK 08 AUDIO
    TITLE "14:cjc020_4099"
    INDEX 01 00:07:52
  TRACK 09 AUDIO
    TITLE "0:"
    INDEX 01 00:09:10
  TRACK 10 AUDIO
    TITLE "13:cjc020_4100"
    INDEX 01 00:09:63
  TRACK 11 AUDIO
    TITLE "0:"
    INDEX 01 00:11:05
  TRACK 12 AUDIO
    TITLE "14:cjc020_4101"
    INDEX 01 00:11:07
  TRACK 13 AUDIO
    TITLE "0:"
    INDEX 01 00:13:33
  TRACK 14 AUDIO
    TITLE "13:cjc020_4102"
    INDEX 01 00:14:11
  TRACK 15 AUDIO
    TITLE "0:"
    INDEX 01 00:15:28
  TRACK 16 AUDIO
    TITLE "14:cjc020_4103"
    INDEX 01 00:15:30
  TRACK 17 AUDIO
    TITLE "0:"
    INDEX 01 00:18:19
  TRACK 18 AUDIO
    TITLE "13:cjc020_4104"
    INDEX 01 00:19:01
  TRACK 19 AUDIO
    TITLE "0:"
    INDEX 01 00:20:10
  TRACK 20 AUDIO
    TITLE "14:cjc020_4105"
    INDEX 01 00:20:14
  TRACK 21 AUDIO
    TITLE "0:"
    INDEX 01 00:22:40
  TRACK 22 AUDIO
    TITLE "13:cjc020_4106"
    INDEX 01 00:23:18
  TRACK 23 AUDIO
    TITLE "0:"
    INDEX 01 00:24:35
  TRACK 24 AUDIO
    TITLE "14:cjc020_4107"
    INDEX 01 00:24:37
  TRACK 25 AUDIO
    TITLE "0:"
    INDEX 01 00:26:60
  TRACK 26 AUDIO
    TITLE "13:cjc020_4108"
    INDEX 01 00:27:41
  TRACK 27 AUDIO
    TITLE "0:"
    INDEX 01 00:28:62
  TRACK 28 AUDIO
    TITLE "14:cjc020_4109"
    INDEX 01 00:28:64
  TRACK 29 AUDIO
    TITLE "0:"
    INDEX 01 00:29:72
  TRACK 30 AUDIO
    TITLE "13:cjc020_4110"
    INDEX 01 00:30:54
  TRACK 31 AUDIO
    TITLE "0:"
    INDEX 01 00:31:57
  TRACK 32 AUDIO
    TITLE "14:cjc020_4111"
    INDEX 01 00:31:63
  TRACK 33 AUDIO
    TITLE "0:"
    INDEX 01 00:34:16
  TRACK 34 AUDIO
    TITLE "13:cjc020_4112"
    INDEX 01 00:34:67
  TRACK 35 AUDIO
    TITLE "0:"
    INDEX 01 00:36:07
  TRACK 36 AUDIO
    TITLE "14:cjc020_4113"
    INDEX 01 00:36:11
  TRACK 37 AUDIO
    TITLE "0:"
    INDEX 01 00:37:30
  TRACK 38 AUDIO
    TITLE "13:cjc020_4114"
    INDEX 01 00:38:08
  TRACK 39 AUDIO
    TITLE "0:"
    INDEX 01 00:39:21
  TRACK 40 AUDIO
    TITLE "14:cjc020_4115"
    INDEX 01 00:39:23
  TRACK 41 AUDIO
    TITLE "0:"
    INDEX 01 00:43:09
  TRACK 42 AUDIO
    TITLE "13:cjc020_4116"
    INDEX 01 00:43:64
  TRACK 43 AUDIO
    TITLE "0:"
    INDEX 01 00:45:12
  TRACK 44 AUDIO
    TITLE "14:cjc020_4117"
    INDEX 01 00:45:18
  TRACK 45 AUDIO
    TITLE "0:"
    INDEX 01 00:47:38
  TRACK 46 AUDIO
    TITLE "13:cjc020_4118"
    INDEX 01 00:48:16
  TRACK 47 AUDIO
    TITLE "0:"
    INDEX 01 00:49:41
  TRACK 48 AUDIO
    TITLE "14:cjc020_4119"
    INDEX 01 00:49:43
  TRACK 49 AUDIO
    TITLE "0:"
    INDEX 01 00:52:36
  TRACK 50 AUDIO
    TITLE "13:cjc020_4120"
    INDEX 01 00:53:17
  TRACK 51 AUDIO
    TITLE "0:"
    INDEX 01 00:54:52
  TRACK 52 AUDIO
    TITLE "14:cjc020_4121"
    INDEX 01 00:54:56
  TRACK 53 AUDIO
    TITLE "0:"
    INDEX 01 00:57:21
  TRACK 54 AUDIO
    TITLE "13:cjc020_4122"
    INDEX 01 00:58:03
  TRACK 55 AUDIO
    TITLE "0:"
    INDEX 01 00:59:34
  TRACK 56 AUDIO
    TITLE "14:cjc020_4123"
    INDEX 01 00:59:39
  TRACK 57 AUDIO
    TITLE "0:"
    INDEX 01 01:00:55
  TRACK 58 AUDIO
    TITLE "13:cjc020_4124"
    INDEX 01 01:01:36
  TRACK 59 AUDIO
    TITLE "0:"
    INDEX 01 01:02:65
  TRACK 60 AUDIO
    TITLE "14:cjc020_4125"
    INDEX 01 01:02:67
  TRACK 61 AUDIO
    TITLE "0:"
    INDEX 01 01:05:24
  TRACK 62 AUDIO
    TITLE "13:cjc020_4126"
    INDEX 01 01:06:04
  TRACK 63 AUDIO
    TITLE "0:"
    INDEX 01 01:07:31
  TRACK 64 AUDIO
    TITLE "14:cjc020_4127"
    INDEX 01 01:07:35
  TRACK 65 AUDIO
    TITLE "0:"
    INDEX 01 01:10:16
